# xmcd
#
# Track frame offsets:
#	150
#	10725
#	20048
#	31717
#	44403
#	54548
#	65887
#	75319
#	93878
#	113054
#	125848
#
# Disc length: 1882 seconds
#
# Revision: 0
# Processed by: cddbd v1.5.2PL0 Copyright (c) Steve Scherf et al.
# Submitted via: dBpowerAMP V4.0
#
DISCID=8807580b
DTITLE=Aretha Franklin - Soul Gems
DYEAR=1900
DGENRE=
TTITLE0=Sweet Sweet Baby
TTITLE1=Good Times
TTITLE2=Over the rainbow
TTITLE3=Sky Lark
TTITLE4=Dont let me loose this dream
TTITLE5=You made me love you
TTITLE6=You send me
TTITLE7=Ain`t no way
TTITLE8=A change is gonna come
TTITLE9=Good times
TTITLE10=Misty
EXTD=
EXTT0=
EXTT1=
EXTT2=
EXTT3=
EXTT4=
EXTT5=
EXTT6=
EXTT7=
EXTT8=
EXTT9=
EXTT10=
PLAYORDER=
